<svg xmlns="http://www.w3.org/2000/svg" viewBox="0 0 21.503 21.503">
  <defs>
    <style>
      .cls-1 {
        fill: #595bd2;
      }
    </style>
  </defs>
  <path id="Path_90" data-name="Path 90" class="cls-1" d="M20.08,7.672H13.835V1.426A1.423,1.423,0,0,0,12.412,0H9.092A1.423,1.423,0,0,0,7.669,1.426V7.671H1.423A1.423,1.423,0,0,0,0,9.094v3.32a1.423,1.423,0,0,0,1.423,1.423H7.669v6.245a1.423,1.423,0,0,0,1.423,1.423h3.32a1.423,1.423,0,0,0,1.423-1.423V13.838H20.08A1.423,1.423,0,0,0,21.5,12.415V9.094A1.423,1.423,0,0,0,20.08,7.672Z" transform="translate(0 -0.003)"/>
</svg>
