<svg xmlns="http://www.w3.org/2000/svg" viewBox="0 0 19.439 16.359">
  <defs>
    <style>
      .cls-1 {
        fill: #c1bfc4;
      }
    </style>
  </defs>
  <path id="Path_6" data-name="Path 6" class="cls-1" d="M11.731,9.156a3.532,3.532,0,0,1,1.644,2.624,2.85,2.85,0,1,0-1.644-2.624ZM9.863,14.993a2.851,2.851,0,1,0-2.851-2.851A2.851,2.851,0,0,0,9.863,14.993Zm1.209.194H8.653A3.655,3.655,0,0,0,5,18.838V21.8l.008.046.2.064a16.616,16.616,0,0,0,4.963.8,10.189,10.189,0,0,0,4.334-.814l.19-.1h.02V18.838A3.654,3.654,0,0,0,11.072,15.188Zm4.717-2.943h-2.4A3.514,3.514,0,0,1,12.3,14.692a4.338,4.338,0,0,1,3.1,4.151v.912a9.824,9.824,0,0,0,3.826-.8l.19-.1h.02V15.895A3.654,3.654,0,0,0,15.789,12.244ZM4.86,12.05a2.832,2.832,0,0,0,1.516-.44A3.528,3.528,0,0,1,7.7,9.36c0-.053.008-.106.008-.16A2.851,2.851,0,1,0,4.86,12.05Zm2.56,2.641a3.516,3.516,0,0,1-1.084-2.434c-.089-.007-.177-.014-.268-.014H3.65A3.654,3.654,0,0,0,0,15.895v2.959l.008.046.2.064a17.115,17.115,0,0,0,4.111.773v-.893A4.338,4.338,0,0,1,7.421,14.692Z" transform="translate(0 -6.348)"/>
</svg>
