<svg xmlns="http://www.w3.org/2000/svg" viewBox="0 0 9.489 9.488">
  <defs>
    <style>
      .cls-1 {
        fill: #9a9a9a;
      }
    </style>
  </defs>
  <g id="edit" transform="translate(0 0)">
    <path id="Path_2" data-name="Path 2" class="cls-1" d="M8.874.642a2.093,2.093,0,0,0-2.962,0L.482,6.071a.272.272,0,0,0-.077.156L0,9.206a.271.271,0,0,0,.077.228.276.276,0,0,0,.192.081.22.22,0,0,0,.036,0l1.8-.243a.273.273,0,0,0-.073-.542L.591,8.923.872,6.845,3.06,9.032a.276.276,0,0,0,.192.081.268.268,0,0,0,.192-.081L8.874,3.6a2.092,2.092,0,0,0,0-2.962Zm-2.857.667.912.912L1.974,7.176l-.912-.912ZM3.254,8.454l-.892-.892L7.318,2.607l.892.892ZM8.589,3.109,6.408.927A1.55,1.55,0,0,1,8.589,3.109Z" transform="translate(0 -0.028)"/>
  </g>
</svg>
