<svg xmlns="http://www.w3.org/2000/svg" viewBox="0 0 19.439 19.44">
  <defs>
    <style>
      .cls-1 {
        fill: #595bd2;
        fill-rule: evenodd;
      }
    </style>
  </defs>
  <path id="Path_6" data-name="Path 6" class="cls-1" d="M19.381,8.641a.633.633,0,0,0-.625-.479,2.146,2.146,0,0,1-1.469-3.736.54.54,0,0,0,.059-.733,9.618,9.618,0,0,0-1.54-1.555.541.541,0,0,0-.739.06,2.24,2.24,0,0,1-2.424.545A2.159,2.159,0,0,1,11.331.633a.539.539,0,0,0-.477-.568A9.7,9.7,0,0,0,8.667.059a.541.541,0,0,0-.481.556A2.163,2.163,0,0,1,6.855,2.689a2.246,2.246,0,0,1-2.406-.548.542.542,0,0,0-.734-.062A9.655,9.655,0,0,0,2.143,3.634a.541.541,0,0,0,.058.739A2.154,2.154,0,0,1,2.744,6.8,2.247,2.247,0,0,1,.629,8.112a.528.528,0,0,0-.561.477,9.737,9.737,0,0,0,0,2.21.643.643,0,0,0,.637.478,2.132,2.132,0,0,1,2,1.332,2.161,2.161,0,0,1-.543,2.4.54.54,0,0,0-.059.732A9.653,9.653,0,0,0,3.636,17.3a.541.541,0,0,0,.74-.059A2.237,2.237,0,0,1,6.8,16.7a2.156,2.156,0,0,1,1.315,2.11.54.54,0,0,0,.477.568,9.674,9.674,0,0,0,2.187.006.541.541,0,0,0,.481-.557,2.16,2.16,0,0,1,1.33-2.073A2.243,2.243,0,0,1,15,17.3a.543.543,0,0,0,.734.061A9.677,9.677,0,0,0,17.3,15.806a.54.54,0,0,0-.058-.739,2.154,2.154,0,0,1-.545-2.425,2.176,2.176,0,0,1,1.988-1.318l.12,0a.541.541,0,0,0,.569-.477A9.729,9.729,0,0,0,19.381,8.641ZM9.738,12.983A3.242,3.242,0,1,1,12.98,9.741,3.246,3.246,0,0,1,9.738,12.983Z" transform="translate(-0.003 0)"/>
</svg>
