<svg xmlns="http://www.w3.org/2000/svg" viewBox="0 0 19.439 29.732">
  <defs>
    <style>
      .cls-1 {
        fill: #c1bfc4;
      }
    </style>
  </defs>
  <path id="Path_5" data-name="Path 5" class="cls-1" d="M119.877,29.693a.327.327,0,0,0,.438-.457,7.078,7.078,0,0,1-.442-7.285c2.54-5.428,4.085-8.24,4.085-8.24a19.13,19.13,0,0,0,3.05,6.2c2.145,2.808,3.319,6.339,1.426,9.281a.327.327,0,0,0,.437.454,9.077,9.077,0,0,0,5.267-8.017,15.008,15.008,0,0,0-.874-5.823,11.314,11.314,0,0,0-3.1-5.216.336.336,0,0,0-.555.263c.218,3.376-1.11,4.233-1.866,2.3a11.329,11.329,0,0,1-.478-3.729,12.38,12.38,0,0,0-2.63-7.75A8.979,8.979,0,0,0,122.984.067a.336.336,0,0,0-.539.277c.139,1.833.013,7.087-4.808,13.364-4.372,5.823-2.678,10.294-2.077,11.506A9.671,9.671,0,0,0,119.877,29.693Z" transform="translate(-114.73 0.001)"/>
</svg>
